<?xml version="1.0" encoding="utf-8"?>
<!-- Generator: Adobe Illustrator 26.3.0, SVG Export Plug-In . SVG Version: 6.00 Build 0)  -->
<svg version="1.1" id="Layer_1" xmlns="http://www.w3.org/2000/svg" xmlns:xlink="http://www.w3.org/1999/xlink" x="0px" y="0px"
	 viewBox="0 0 305.9 73.9" style="enable-background:new 0 0 305.9 73.9;" xml:space="preserve">
<style type="text/css">
	.st0{fill:#76CEF4;}
	.st1{fill:#2CA6DE;}
	.st2{fill:#3586C7;}
	.st3{fill:#046BB5;}
	.st4{fill:url(#SVGID_1_);}
	.st5{fill:url(#SVGID_00000112625414286814996100000011008708852041269401_);}
	.st6{fill:url(#SVGID_00000083789926124163415790000000882445612705460403_);}
	.st7{fill:url(#SVGID_00000088121134790510442600000003390347963490245541_);}
	.st8{fill:url(#SVGID_00000137845593992470173950000015514567298339746226_);}
</style>
<g>
	<g>
		<polygon class="st0" points="29,19.4 19.3,20.1 7,11.8 17.6,11.6 		"/>
		<polygon class="st0" points="38.3,18.7 30.1,19.3 18.8,11.6 27.7,11.5 		"/>
		<polygon class="st1" points="46.4,18.1 39.3,18.7 28.8,11.5 36.5,11.4 		"/>
		<polygon class="st0" points="41.6,27.9 32.8,29.3 20.5,20.9 30.1,20.1 		"/>
		<polygon class="st0" points="49.9,26.5 42.5,27.7 31.1,20 39.3,19.3 		"/>
		<polygon class="st1" points="57.2,25.4 50.8,26.4 40.3,19.3 47.3,18.7 		"/>
		<polygon class="st0" points="53.9,36.3 46.2,38.4 33.7,29.9 42.4,28.4 		"/>
		<polygon class="st0" points="61.4,34.3 54.8,36 43.3,28.3 50.7,27.1 		"/>
		<polygon class="st1" points="67.8,32.6 62.2,34.1 51.6,27 57.9,25.9 		"/>
		<polygon class="st0" points="66.6,44.9 59.8,47.6 47.3,39.1 55,37 		"/>
		<polygon class="st0" points="73.1,42.2 67.3,44.6 55.8,36.8 62.3,34.9 		"/>
		<polygon class="st1" points="78.7,40 73.8,42 63.1,34.8 68.7,33.2 		"/>
	</g>
	<g>
		<polygon class="st2" points="62.4,16.4 56,16.8 47.7,11.2 54.7,11.1 		"/>
		<polygon class="st2" points="68.6,15.9 63.1,16.3 55.5,11.1 61.5,11 		"/>
		<polygon class="st3" points="74.1,15.5 69.3,15.9 62.2,11 67.4,10.9 		"/>
		<polygon class="st2" points="70.8,22.1 65,23 56.7,17.4 63.1,16.8 		"/>
		<polygon class="st2" points="76.4,21.2 71.4,22 63.8,16.8 69.3,16.3 		"/>
		<polygon class="st3" points="81.3,20.5 77,21.2 69.9,16.3 74.7,16 		"/>
		<polygon class="st2" points="78.9,27.7 73.8,29 65.6,23.4 71.3,22.5 		"/>
		<polygon class="st2" points="84,26.4 79.5,27.5 72,22.4 76.9,21.6 		"/>
		<polygon class="st3" points="88.4,25.4 84.5,26.3 77.5,21.5 81.8,20.8 		"/>
		<polygon class="st2" points="87.2,33.3 82.6,35 74.5,29.5 79.6,28.2 		"/>
		<polygon class="st2" points="91.6,31.7 87.7,33.2 80.2,28 84.6,26.9 		"/>
		<polygon class="st3" points="95.6,30.3 92.1,31.6 85.2,26.8 89,25.8 		"/>
	</g>
	<g>
		<linearGradient id="SVGID_1_" gradientUnits="userSpaceOnUse" x1="0" y1="30.0867" x2="83.6158" y2="30.0867">
			<stop  offset="0" style="stop-color:#394869"/>
			<stop  offset="1" style="stop-color:#3586C7"/>
		</linearGradient>
		<path class="st4" d="M59.7,50.8l-0.2-0.1L0,10.1l36.3-0.7l0.1,0.1l47.2,30.8L59.7,50.8z M2.9,10.9l56.9,38.8l21.9-9.6L36.1,10.3
			L2.9,10.9z"/>
		
			<linearGradient id="SVGID_00000085968283174984768280000006700446521118091677_" gradientUnits="userSpaceOnUse" x1="42.5026" y1="23.4498" x2="99.372" y2="23.4498">
			<stop  offset="0" style="stop-color:#394869"/>
			<stop  offset="1" style="stop-color:#3586C7"/>
		</linearGradient>
		<path style="fill:url(#SVGID_00000085968283174984768280000006700446521118091677_);" d="M82.6,37.5L42.5,9.9l24.9-0.5l0.1,0.1
			l31.8,21.4L82.6,37.5z M45.4,10.7l37.3,25.7l14.7-5.9L67.1,10.3L45.4,10.7z"/>
		
			<linearGradient id="SVGID_00000034797920293330652770000001826988182087473033_" gradientUnits="userSpaceOnUse" x1="19.2751" y1="51.0692" x2="91.062" y2="51.0692">
			<stop  offset="0" style="stop-color:#394869"/>
			<stop  offset="1" style="stop-color:#3586C7"/>
		</linearGradient>
		<polygon style="fill:url(#SVGID_00000034797920293330652770000001826988182087473033_);" points="26.6,28.2 26.5,69.7 19.3,72.8 
			27.1,73.9 91.1,40.2 89.8,40 75.5,47.3 75.4,43.8 72.5,45.2 72.5,48.6 65.4,52 65.3,48.3 62.3,49.6 62.5,53.1 44.2,61.5 
			44.3,40.2 39.5,37.1 39.5,63.6 31.1,67.5 31.2,31.3 		"/>
		
			<linearGradient id="SVGID_00000140727306086383844380000010223495034165006013_" gradientUnits="userSpaceOnUse" x1="62.3551" y1="26.0138" x2="65.2456" y2="26.0138">
			<stop  offset="0" style="stop-color:#394869"/>
			<stop  offset="1" style="stop-color:#3586C7"/>
		</linearGradient>
		<polygon style="fill:url(#SVGID_00000140727306086383844380000010223495034165006013_);" points="62.4,23.5 62.4,26.6 65.2,28.5 
			65.2,25.5 		"/>
		
			<linearGradient id="SVGID_00000143578258347765917460000005618247354666108863_" gradientUnits="userSpaceOnUse" x1="73.0658" y1="33.0184" x2="75.4415" y2="33.0184">
			<stop  offset="0" style="stop-color:#394869"/>
			<stop  offset="1" style="stop-color:#3586C7"/>
		</linearGradient>
		<polygon style="fill:url(#SVGID_00000143578258347765917460000005618247354666108863_);" points="73.1,30.9 73.1,33.5 75.4,35.1 
			75.4,32.5 		"/>
	</g>
	<g>
		<g>
			<path class="st3" d="M123,36.2h10.2v2.7h-13.1V21.2h13v2.7H123v4.7h9.6v2.6H123V36.2z"/>
			<path class="st3" d="M133.7,39.3h-14.1V20.7h13.9v3.6h-10.1v3.8h9.6v3.6h-9.6v4h10.2V39.3z M120.6,38.4h12.2v-1.8h-10.2v-5.9h9.6
				v-1.7h-9.6v-5.6h10.1v-1.7h-12.1V38.4z"/>
		</g>
		<g>
			<path class="st3" d="M149,21.2h3v17.7h-2.7l-9.5-12.6l0,5.6v7h-3V21.2h2.7l9.5,12.6l0-5.3V21.2z"/>
			<path class="st3" d="M152.4,39.3H149l-8.8-11.7l0,4.2v7.4h-3.9V20.7h3.4l8.8,11.7l0-3.9v-7.8h3.9V39.3z M149.5,38.4h2V21.7h-2
				v6.9l0,6.7l-10.2-13.5h-2v16.7h2v-6.5l0-7L149.5,38.4z"/>
		</g>
		<g>
			<path class="st3" d="M159.2,36.2h10.2v2.7h-13.1V21.2h13v2.7h-10.1v4.7h9.6v2.6h-9.6V36.2z"/>
			<path class="st3" d="M169.9,39.3h-14.1V20.7h13.9v3.6h-10.1v3.8h9.6v3.6h-9.6v4h10.2V39.3z M156.7,38.4h12.2v-1.8h-10.2v-5.9h9.6
				v-1.7h-9.6v-5.6h10.1v-1.7h-12.1V38.4z"/>
		</g>
		<g>
			<path class="st3" d="M184.6,38.9l-5.1-6h-3.6v6h-3V21.2h8.3c1.9,0,3.4,0.5,4.5,1.6c1.1,1.1,1.7,2.5,1.7,4.2
				c0,1.5-0.4,2.7-1.2,3.7c-0.8,1-1.9,1.6-3.3,1.9l5.4,6.2H184.6z M184.5,27c0-1-0.3-1.7-0.9-2.3c-0.6-0.5-1.4-0.8-2.5-0.8h-5.3v6.2
				h5.3c1.1,0,1.9-0.3,2.5-0.8C184.2,28.8,184.5,28,184.5,27z"/>
			<path class="st3" d="M189.3,39.3h-4.9l-5.1-6h-2.9v6h-3.9V20.7h8.7c2,0,3.6,0.6,4.9,1.7c1.2,1.1,1.9,2.7,1.9,4.6
				c0,1.6-0.4,2.9-1.3,4c-0.7,0.9-1.7,1.5-2.9,1.9L189.3,39.3z M184.8,38.4h2.4l-5.2-6l0.8-0.2c1.3-0.3,2.3-0.9,3.1-1.8
				c0.7-0.9,1.1-2,1.1-3.4c0-1.6-0.5-2.9-1.6-3.9c-1-1-2.5-1.5-4.2-1.5h-7.8v16.7h2v-6h4.3L184.8,38.4z M181.2,30.6h-5.8v-7.1h5.8
				c1.2,0,2.1,0.3,2.8,0.9c0.7,0.6,1,1.5,1,2.6c0,1.1-0.3,2-1,2.6C183.3,30.3,182.3,30.6,181.2,30.6z M176.3,29.7h4.9
				c0.9,0,1.6-0.2,2.1-0.7c0.5-0.5,0.7-1.1,0.7-1.9c0-0.8-0.2-1.5-0.7-1.9c-0.5-0.5-1.2-0.7-2.1-0.7h-4.9V29.7z"/>
		</g>
		<g>
			<path class="st3" d="M198.7,28.8h7.7v7.5c-1.9,1.9-4.3,2.9-7.2,2.9c-2.7,0-5-0.8-6.6-2.5c-1.7-1.7-2.5-3.9-2.5-6.7
				c0-1.8,0.4-3.4,1.2-4.8c0.8-1.4,1.9-2.5,3.3-3.2c1.4-0.8,3-1.2,4.9-1.2c1.3,0,2.5,0.2,3.6,0.7c1.1,0.5,2.1,1.1,3,2l-1.9,1.9
				c-0.6-0.6-1.3-1.1-2.1-1.4c-0.8-0.3-1.7-0.5-2.5-0.5c-1.9,0-3.4,0.6-4.6,1.8c-1.2,1.2-1.8,2.7-1.8,4.7c0,2,0.6,3.5,1.7,4.7
				c1.1,1.2,2.6,1.8,4.5,1.8c1.8,0,3.3-0.5,4.5-1.4v-3.6h-4.9V28.8z"/>
			<path class="st3" d="M199.1,39.7c-2.9,0-5.2-0.9-7-2.6c-1.7-1.8-2.6-4.1-2.6-7c0-1.9,0.4-3.5,1.2-5c0.8-1.5,2-2.6,3.5-3.4
				c1.5-0.8,3.2-1.2,5.1-1.2c1.3,0,2.6,0.2,3.8,0.7c1.2,0.5,2.2,1.2,3.1,2.1l0.3,0.3l-2.5,2.6l-0.3-0.3c-0.5-0.5-1.2-1-2-1.3
				c-0.8-0.3-1.6-0.5-2.4-0.5c-1.8,0-3.2,0.5-4.3,1.6c-1.1,1.1-1.6,2.5-1.6,4.3c0,1.8,0.5,3.3,1.5,4.4c1,1.1,2.4,1.6,4.2,1.6
				c1.6,0,2.9-0.4,4-1.2v-2.9h-4.9v-3.5h8.6v8.1l-0.1,0.1C204.6,38.7,202.1,39.7,199.1,39.7z M199.4,21.3c-1.7,0-3.3,0.4-4.6,1.1
				c-1.3,0.7-2.4,1.8-3.1,3.1c-0.7,1.3-1.1,2.8-1.1,4.5c0,2.6,0.8,4.8,2.4,6.3c1.6,1.6,3.7,2.4,6.3,2.4c2.6,0,4.9-0.9,6.7-2.6v-6.8
				h-6.7V31h4.9v4.3l-0.2,0.1c-1.3,1-2.9,1.5-4.8,1.5c-2,0-3.6-0.6-4.8-1.9c-1.2-1.3-1.8-2.9-1.8-5c0-2,0.6-3.7,1.9-5
				c1.3-1.3,2.9-1.9,4.9-1.9c0.9,0,1.8,0.2,2.7,0.5c0.7,0.3,1.4,0.7,2,1.2l1.2-1.2c-0.7-0.7-1.6-1.2-2.5-1.6
				C201.7,21.6,200.5,21.3,199.4,21.3z"/>
		</g>
		<g>
			<path class="st3" d="M224.2,21.2l-7.1,10.5v7.1h-2.9v-7.1l-6.9-10.5h3.5l4.9,7.7l5-7.7H224.2z"/>
			<path class="st3" d="M217.5,39.3h-3.9v-7.5l-7.3-11.1h4.6l4.6,7.3l4.8-7.3h4.7l-7.6,11.1V39.3z M214.6,38.4h2v-6.8l6.7-9.9h-2.4
				l-5.3,8.1l-5.1-8.1h-2.4l6.5,9.9V38.4z"/>
		</g>
		<g>
			<path class="st3" d="M244.3,21.2h3v17.7h-2.7l-9.5-12.6l0,5.6v7h-3V21.2h2.7l9.5,12.6l0-5.3V21.2z"/>
			<path class="st3" d="M247.7,39.3h-3.4l-8.8-11.7l0,4.2v7.4h-3.9V20.7h3.4l8.8,11.7l0-3.9v-7.8h3.9V39.3z M244.8,38.4h2V21.7h-2
				v6.9l0,6.7l-10.2-13.5h-2v16.7h2v-6.5l0-7L244.8,38.4z"/>
		</g>
		<g>
			<path class="st3" d="M259.6,39.2c-1.8,0-3.4-0.4-4.8-1.2c-1.4-0.8-2.4-1.8-3.2-3.2c-0.8-1.4-1.1-3-1.1-4.8c0-1.8,0.4-3.4,1.1-4.8
				c0.8-1.4,1.8-2.5,3.2-3.2c1.4-0.8,3-1.2,4.8-1.2c2.7,0,4.9,0.8,6.6,2.5c1.7,1.7,2.5,3.9,2.5,6.7c0,2.7-0.8,5-2.5,6.7
				C264.5,38.4,262.3,39.2,259.6,39.2z M259.6,36.5c1.8,0,3.3-0.6,4.4-1.8c1.1-1.2,1.7-2.8,1.7-4.7c0-1.9-0.6-3.5-1.7-4.7
				s-2.6-1.8-4.4-1.8c-1.8,0-3.3,0.6-4.4,1.8c-1.1,1.2-1.7,2.8-1.7,4.7c0,1.9,0.6,3.5,1.7,4.7C256.3,35.9,257.8,36.5,259.6,36.5z"/>
			<path class="st3" d="M259.6,39.7c-1.9,0-3.5-0.4-5-1.2c-1.5-0.8-2.6-2-3.4-3.4c-0.8-1.5-1.2-3.2-1.2-5c0-1.9,0.4-3.6,1.2-5
				c0.8-1.5,1.9-2.6,3.4-3.4c1.4-0.8,3.1-1.2,5-1.2c2.8,0,5.1,0.9,6.9,2.7c1.8,1.8,2.6,4.1,2.6,7c0,2.9-0.9,5.2-2.6,7
				C264.8,38.8,262.5,39.7,259.6,39.7z M259.6,21.3c-1.7,0-3.2,0.4-4.5,1.1c-1.3,0.7-2.3,1.7-3,3.1c-0.7,1.3-1.1,2.9-1.1,4.6
				c0,1.7,0.4,3.3,1.1,4.6c0.7,1.3,1.7,2.3,3,3.1c1.3,0.7,2.8,1.1,4.5,1.1c2.6,0,4.7-0.8,6.2-2.4c1.6-1.6,2.4-3.7,2.4-6.3
				c0-2.6-0.8-4.7-2.4-6.3C264.3,22.1,262.2,21.3,259.6,21.3z M259.6,37c-1.9,0-3.6-0.7-4.8-1.9c-1.2-1.3-1.8-3-1.8-5s0.6-3.7,1.8-5
				c1.2-1.3,2.8-1.9,4.8-1.9c1.9,0,3.5,0.7,4.8,1.9c1.2,1.3,1.8,3,1.8,5c0,2-0.6,3.7-1.8,5C263.2,36.3,261.6,37,259.6,37z M259.6,24
				c-1.7,0-3,0.5-4.1,1.6c-1,1.1-1.6,2.6-1.6,4.4c0,1.8,0.5,3.3,1.6,4.4c1,1.1,2.4,1.7,4.1,1.7c1.7,0,3-0.5,4.1-1.7
				c1-1.1,1.6-2.6,1.6-4.4c0-1.8-0.5-3.3-1.6-4.4C262.7,24.6,261.3,24,259.6,24z"/>
		</g>
		<g>
			<path class="st3" d="M284.2,21.2h3.2L280,38.9h-3.2l-7.3-17.7h3.2l3,7.3l2.7,6.9L284.2,21.2z"/>
			<path class="st3" d="M280.4,39.3h-3.8l-7.7-18.6h4.2l3.1,7.6l2.3,5.8l5.4-13.4h4.2L280.4,39.3z M277.2,38.4h2.6l6.9-16.7h-2.2
				l-6,15l-3.2-8l-2.9-7h-2.2L277.2,38.4z"/>
		</g>
		<g>
			<path class="st3" d="M301.8,38.9l-1.6-3.7h-9.5l-1.6,3.7h-3.2l7.9-17.7h3.3l7.9,17.7H301.8z M295.5,24.2l-3.6,8.3h7.2L295.5,24.2
				z"/>
			<path class="st3" d="M305.8,39.3h-4.2l-1.6-3.7H291l-1.6,3.7h-4.2l8.3-18.6h3.9L305.8,39.3z M302.1,38.4h2.2l-7.5-16.7h-2.7
				l-7.5,16.7h2.2l1.6-3.7h10.1L302.1,38.4z M299.8,33h-8.6l4.3-10L299.8,33z M292.6,32.1h5.8l-2.9-6.7L292.6,32.1z"/>
		</g>
	</g>
	<g>
		<path class="st1" d="M122.3,48.1c1.2,0,2.1,0.7,2.4,1.4v-1.3h0.8v6.1h-0.8v-1.4c-0.4,0.8-1.2,1.4-2.4,1.4c-1.7,0-2.9-1.2-2.9-3.2
			C119.4,49.3,120.7,48.1,122.3,48.1z M122.5,48.8c-1.3,0-2.3,0.9-2.3,2.5c0,1.5,1,2.5,2.3,2.5c1.3,0,2.3-0.9,2.3-2.5
			C124.8,49.7,123.7,48.8,122.5,48.8z"/>
		<path class="st1" d="M131.4,48.1c1.1,0,2,0.6,2.4,1.4V46h0.8v8.3h-0.8v-1.4c-0.4,0.8-1.2,1.5-2.4,1.5c-1.7,0-2.9-1.2-2.9-3.2
			C128.5,49.3,129.7,48.1,131.4,48.1z M131.6,48.8c-1.3,0-2.3,0.9-2.3,2.5c0,1.5,1,2.5,2.3,2.5c1.3,0,2.3-0.9,2.3-2.5
			C133.8,49.7,132.8,48.8,131.6,48.8z"/>
		<path class="st1" d="M138,48.2l2.1,5.4l2.1-5.4h0.8l-2.5,6.1h-0.9l-2.5-6.1H138z"/>
		<path class="st1" d="M148.1,48.1c1.2,0,2.1,0.7,2.4,1.4v-1.3h0.8v6.1h-0.8v-1.4c-0.4,0.8-1.2,1.4-2.4,1.4c-1.7,0-2.9-1.2-2.9-3.2
			C145.2,49.3,146.5,48.1,148.1,48.1z M148.3,48.8c-1.3,0-2.3,0.9-2.3,2.5c0,1.5,1,2.5,2.3,2.5c1.3,0,2.3-0.9,2.3-2.5
			C150.6,49.7,149.5,48.8,148.3,48.8z"/>
		<path class="st1" d="M159.2,50.8c0-1.4-0.7-2.1-1.9-2.1c-1.1,0-1.9,0.7-1.9,2.2v3.3h-0.8v-6.1h0.8v1c0.4-0.8,1.2-1.2,2.1-1.2
			c1.4,0,2.5,0.9,2.5,2.6v3.6h-0.8V50.8z"/>
		<path class="st1" d="M165.9,48.1c1.5,0,2.5,0.8,2.8,2.1h-0.8c-0.2-0.9-0.9-1.4-2-1.4c-1.2,0-2.2,0.8-2.2,2.5c0,1.7,1,2.5,2.2,2.5
			c1,0,1.8-0.5,2-1.4h0.8c-0.3,1.2-1.3,2.1-2.8,2.1c-1.7,0-3-1.2-3-3.1C162.9,49.3,164.1,48.1,165.9,48.1z"/>
		<path class="st1" d="M174.3,54.4c-1.7,0-3-1.2-3-3.1c0-1.9,1.2-3.1,3-3.1c1.8,0,2.9,1.3,2.9,2.8c0,0.2,0,0.4,0,0.6h-5.1
			c0.1,1.4,1.1,2.2,2.2,2.2c1,0,1.7-0.5,2-1.4h0.8C176.8,53.5,175.8,54.4,174.3,54.4z M172.1,50.9h4.3c0-1.4-1-2.1-2.1-2.1
			C173.1,48.7,172.2,49.5,172.1,50.9z"/>
		<path class="st1" d="M182.7,48.1c1.1,0,2,0.6,2.4,1.4V46h0.8v8.3h-0.8v-1.4c-0.4,0.8-1.2,1.5-2.4,1.5c-1.7,0-2.9-1.2-2.9-3.2
			C179.8,49.3,181,48.1,182.7,48.1z M182.8,48.8c-1.3,0-2.3,0.9-2.3,2.5c0,1.5,1,2.5,2.3,2.5c1.3,0,2.3-0.9,2.3-2.5
			C185.1,49.7,184.1,48.8,182.8,48.8z"/>
		<path class="st1" d="M196.4,54.4c-1.7,0-3-1.2-3-3.1c0-1.9,1.2-3.1,3-3.1c1.8,0,2.9,1.3,2.9,2.8c0,0.2,0,0.4,0,0.6h-5.1
			c0.1,1.4,1.1,2.2,2.2,2.2c1,0,1.7-0.5,2-1.4h0.8C198.9,53.5,198,54.4,196.4,54.4z M194.2,50.9h4.3c0-1.4-1-2.1-2.1-2.1
			C195.3,48.7,194.3,49.5,194.2,50.9z"/>
		<path class="st1" d="M206.8,50.8c0-1.4-0.7-2.1-1.9-2.1c-1.1,0-1.9,0.7-1.9,2.2v3.3h-0.8v-6.1h0.8v1c0.4-0.8,1.2-1.2,2.1-1.2
			c1.4,0,2.5,0.9,2.5,2.6v3.6h-0.8V50.8z"/>
		<path class="st1" d="M213.5,54.4c-1.7,0-3-1.2-3-3.1c0-1.9,1.2-3.1,3-3.1c1.8,0,2.9,1.3,2.9,2.8c0,0.2,0,0.4,0,0.6h-5.1
			c0.1,1.4,1.1,2.2,2.2,2.2c1,0,1.7-0.5,2-1.4h0.8C216,53.5,215,54.4,213.5,54.4z M211.3,50.9h4.3c0-1.4-1-2.1-2.1-2.1
			C212.4,48.7,211.4,49.5,211.3,50.9z"/>
		<path class="st1" d="M220.1,54.3h-0.8v-6.1h0.8v1.1c0.3-0.8,1-1.2,2.1-1.2v0.8H222c-1,0-1.9,0.5-1.9,2V54.3z"/>
		<path class="st1" d="M227.5,48.1c1.2,0,2.1,0.6,2.4,1.4v-1.3h0.8v6.3c0,1.7-1.2,2.8-2.9,2.8c-1.6,0-2.7-0.8-2.9-2.1h0.8
			c0.3,0.8,1,1.4,2.2,1.4c1.2,0,2.1-0.8,2.1-2.2v-1.5c-0.4,0.8-1.2,1.4-2.4,1.4c-1.7,0-2.9-1.2-2.9-3.2
			C224.6,49.3,225.8,48.1,227.5,48.1z M227.6,48.8c-1.3,0-2.3,0.9-2.3,2.5c0,1.5,1,2.5,2.3,2.5c1.3,0,2.3-0.9,2.3-2.5
			C229.9,49.7,228.9,48.8,227.6,48.8z"/>
		<path class="st1" d="M238.2,48.2h0.8l-3.6,9h-0.8l1.2-2.9l-2.5-6.1h0.9l2.1,5.2L238.2,48.2z"/>
		<path class="st1" d="M248.3,54.4c-1.4,0-2.4-0.7-2.5-1.8h0.8c0.1,0.7,0.6,1.2,1.6,1.2c0.9,0,1.4-0.5,1.4-1.1
			c0-1.5-3.7-0.6-3.7-2.9c0-0.9,0.9-1.7,2.2-1.7c1.3,0,2.2,0.7,2.2,1.9h-0.8c0-0.7-0.5-1.2-1.5-1.2c-0.8,0-1.3,0.4-1.3,1
			c0,1.7,3.6,0.8,3.7,2.9C250.4,53.6,249.6,54.4,248.3,54.4z"/>
		<path class="st1" d="M256.1,54.4c-1.7,0-3-1.2-3-3.1c0-1.9,1.3-3.1,3.1-3.1c1.7,0,3.1,1.2,3.1,3.1
			C259.2,53.2,257.8,54.4,256.1,54.4z M256.1,53.7c1.2,0,2.3-0.8,2.3-2.5c0-1.7-1.1-2.5-2.3-2.5c-1.2,0-2.3,0.8-2.3,2.5
			C253.9,52.9,254.9,53.7,256.1,53.7z"/>
		<path class="st1" d="M262.1,46h0.8v8.3h-0.8V46z"/>
		<path class="st1" d="M271.5,54.3h-0.8v-1.1c-0.4,0.8-1.2,1.2-2.1,1.2c-1.4,0-2.5-0.9-2.5-2.6v-3.6h0.8v3.5c0,1.4,0.7,2,1.9,2
			c1.1,0,1.9-0.7,1.9-2.2v-3.3h0.8V54.3z"/>
		<path class="st1" d="M275,48.8h-0.9v-0.7h0.9v-1.5h0.8v1.5h1.7v0.7h-1.7v3.8c0,0.8,0.3,1,1,1h0.7v0.7h-0.8c-1.1,0-1.6-0.4-1.6-1.7
			V48.8z"/>
		<path class="st1" d="M280.1,46.4c0-0.3,0.3-0.6,0.6-0.6c0.3,0,0.6,0.2,0.6,0.6c0,0.3-0.3,0.6-0.6,0.6
			C280.4,47,280.1,46.8,280.1,46.4z M280.3,48.2h0.8v6.1h-0.8V48.2z"/>
		<path class="st1" d="M287.1,54.4c-1.7,0-3-1.2-3-3.1c0-1.9,1.3-3.1,3.1-3.1c1.7,0,3.1,1.2,3.1,3.1
			C290.1,53.2,288.8,54.4,287.1,54.4z M287.1,53.7c1.2,0,2.3-0.8,2.3-2.5c0-1.7-1.1-2.5-2.3-2.5c-1.2,0-2.3,0.8-2.3,2.5
			C284.8,52.9,285.9,53.7,287.1,53.7z"/>
		<path class="st1" d="M297.7,50.8c0-1.4-0.7-2.1-1.9-2.1c-1.1,0-1.9,0.7-1.9,2.2v3.3h-0.8v-6.1h0.8v1c0.4-0.8,1.2-1.2,2.1-1.2
			c1.4,0,2.5,0.9,2.5,2.6v3.6h-0.8V50.8z"/>
		<path class="st1" d="M303.8,54.4c-1.4,0-2.4-0.7-2.5-1.8h0.8c0.1,0.7,0.6,1.2,1.6,1.2c0.9,0,1.4-0.5,1.4-1.1
			c0-1.5-3.7-0.6-3.7-2.9c0-0.9,0.9-1.7,2.2-1.7c1.3,0,2.2,0.7,2.2,1.9h-0.8c0-0.7-0.5-1.2-1.5-1.2c-0.8,0-1.3,0.4-1.3,1
			c0,1.7,3.6,0.8,3.7,2.9C305.9,53.6,305.1,54.4,303.8,54.4z"/>
	</g>
	<rect x="109.5" class="st3" width="1.5" height="72.2"/>
</g>
</svg>
